<?xml version='1.0' encoding='iso-8859-1'?>
<!DOCTYPE svg PUBLIC '-//W3C//DTD SVG 1.1//EN' 'http://www.w3.org/Graphics/SVG/1.1/DTD/svg11.dtd'>
<svg version="1.1" xmlns="http://www.w3.org/2000/svg" viewBox="0 0 300.996 300.996" xmlns:xlink="http://www.w3.org/1999/xlink" fill="#b00000">
  <g>
    <path d="m248.413,201.521c7.969-15.262 12.481-32.614 12.481-51.023 0-60.97-49.426-110.396-110.396-110.396-6.901,0-13.653,0.639-20.203,1.851 0.011,0.136 0.031,0.271 0.039,0.408l2.383,41.503 25.028,16.18c5.324,3.441 8.761,9.031 9.429,15.333 0.174,1.637 0.155,3.266-0.047,4.859l81.286,81.285z"/>
    <path d="m150.498,260.894c22.587,0 43.585-6.788 61.077-18.429l-83.246-83.246c-7.93,1.084-15.909-2.392-20.408-9.351l-16.267-25.163c-22.184-1.25-47.831-2.711-47.831-2.711-2.424,9.093-3.721,18.646-3.721,28.503-7.10543e-15,60.971 49.426,110.397 110.396,110.397z"/>
    <path d="M150.498,275.996C81.298,275.996,25,219.698,25,150.499c0-14.914,2.621-29.227,7.417-42.508l-1.111-3.136L20.589,74.596   C7.511,96.894,0,122.834,0,150.499c0,82.984,67.513,150.497,150.498,150.497c33.631,0,64.719-11.09,89.804-29.803l-17.899-17.899   C202.025,267.591,177.226,275.996,150.498,275.996z"/>
    <path d="m122.945,28.055c8.87-1.995 18.09-3.055 27.553-3.055 69.2,0 125.498,56.298 125.498,125.498 0,22.585-6,43.793-16.485,62.121l18.202,18.202c14.738-23.258 23.283-50.81 23.283-80.323 0-82.985-67.513-150.498-150.498-150.498-22.714,0-44.263,5.068-63.591,14.116 18.969,6.884 36.038,13.939 36.038,13.939z"/>
    <path d="m148.994,123.316c0.035-0.214 0.04-0.246 0.075-0.459 4.276-2.339 4.126-7.893 0.533-10.215l-31.423-20.314-2.561-44.584c-0.268-4.666-3.308-8.716-7.714-10.277l-47.521-16.83-39.684-14.056c-0.523-0.185-1.063-0.275-1.599-0.275-1.561,0-3.084,0.764-4.011,2.165-0.856,1.294-0.961,2.949-0.443,4.412l30.82,87.022c1.56,4.405 5.604,7.445 10.27,7.713 13.843,0.795 33.762,1.939 44.381,2.549l20.401,31.558c1.904,2.944 5.927,3.56 8.633,1.384 0.388-0.313 1.777-1.728 2.165-2.115l134.865,134.865c4.882,4.882 12.797,4.881 17.678,0 4.882-4.882 4.882-12.796 0-17.678l-134.865-134.865zm-56.922-28.636l-38.774-38.774c-2.929-2.93-2.929-7.678 0-10.607 2.93-2.928 7.678-2.928 10.607,0l38.774,38.774c0.775,13.485 0.558,9.719 0.646,11.254-2.014-0.116-0.32-0.019-11.253-0.647z"/>
  </g>
  <text font-family="Tahoma" font-weight="bold" font-size="250" text-anchor="middle" fill="#800000" stroke="#200000" stroke-width="4" opacity="0.7" x="150" y="255">V</text>
</svg>
